<svg width="250" height="67" viewBox="0 0 250 67" fill="none" xmlns="http://www.w3.org/2000/svg">
<g clip-path="url(#clip0_847_99)">
<path fill-rule="evenodd" clip-rule="evenodd" d="M250.003 55.7182H239.427L231.458 43.4013L223.563 55.7182H212.986L225.35 36.9492L213.508 18.7685H223.935L231.458 30.7163L239.054 18.7656H249.482L237.639 36.9463L250.003 55.7182ZM198.538 51.3926C196.453 54.1786 192.654 56.4516 186.995 56.4516C176.791 56.4516 169.866 48.3159 169.866 37.2435C169.866 26.0993 176.793 18.035 186.995 18.035C192.655 18.035 196.455 20.3081 198.54 23.0941L198.987 18.7681H207.029V55.719H198.985L198.538 51.3926ZM198.091 31.3024C196.08 28.1478 193.399 25.8038 188.93 25.8038C183.122 25.8038 178.95 30.2759 178.95 37.241C178.95 44.2062 183.12 48.6783 188.93 48.6783C193.399 48.6783 196.08 46.3322 198.091 43.1797V31.3045V31.3024ZM159.96 48.5318C162.344 48.5318 163.982 48.0183 165.099 47.3583L167.482 54.2488C165.62 55.4218 162.865 56.4487 159.14 56.4487C150.575 56.4487 145.138 51.6105 145.138 42.6679V26.2454H138.061V18.7673H145.136V6.37696H154.074V18.7673H165.395V26.2454H154.074V42.5948C154.074 46.3339 156.458 48.5334 159.958 48.5334L159.96 48.5318ZM127.336 12.3886C126.608 12.4097 125.882 12.2839 125.204 12.0189C124.527 11.7539 123.911 11.3553 123.395 10.8474C122.879 10.3395 122.473 9.73314 122.203 9.0653C121.932 8.39747 121.803 7.68227 121.823 6.96347C121.803 6.24464 121.932 5.52939 122.203 4.86151C122.473 4.19363 122.878 3.58717 123.395 3.07926C123.911 2.57134 124.526 2.17267 125.204 1.90763C125.882 1.6426 126.608 1.51678 127.336 1.53789C130.539 1.53789 132.922 3.8109 132.922 6.96347C132.922 10.116 130.539 12.3886 127.336 12.3886ZM98.2152 56.4516C92.5548 56.4516 88.6815 54.1794 86.5965 51.3934L86.224 55.719H78.1803V0H87.118V22.4329C89.1289 20.0868 92.7038 18.033 98.2152 18.033C108.345 18.033 115.272 26.0977 115.272 37.2415C115.272 48.3135 108.345 56.4516 98.2152 56.4516ZM96.2792 25.8063C91.8103 25.8063 89.0548 28.1523 87.1184 31.3049V43.1813C89.0544 46.3339 91.8103 48.68 96.2792 48.68C102.087 48.68 106.26 44.2074 106.26 37.2427C106.26 30.278 102.089 25.8054 96.2787 25.8054L96.2792 25.8063ZM61.1247 32.4061V55.7206H52.1861V18.7673H60.2308L60.6773 23.6794C62.5393 20.7468 66.3381 18.0342 71.7009 18.0342V26.834H70.9559C66.4122 26.832 63.5077 29.178 61.1243 32.4041L61.1247 32.4061ZM25.2531 56.4516C20.1519 56.4515 15.2571 54.4655 11.6326 50.9254C8.00808 47.3853 5.947 42.5773 5.89742 37.5466L14.1466 39.727C14.6019 41.8839 15.6879 43.8621 17.2704 45.4172C18.8529 46.9722 20.8626 48.0361 23.0512 48.4773C25.2399 48.9185 27.5117 48.7178 29.586 47.9C31.6603 47.0821 33.4463 45.683 34.7234 43.8753C36.0004 42.0676 36.7126 39.9305 36.772 37.7281C36.8314 35.5257 36.2354 33.3544 35.0575 31.4823C33.8797 29.6102 32.1717 28.1194 30.1444 27.194C28.1171 26.2685 25.8593 25.949 23.6499 26.2749L19.4681 19.1313C22.1299 18.3117 24.9398 18.069 27.7055 18.4195C30.4712 18.7701 33.1275 19.7058 35.4927 21.1625C37.8578 22.6193 39.876 24.5627 41.4091 26.8599C42.9422 29.157 43.954 31.7537 44.3754 34.4722C44.7968 37.1908 44.6178 39.967 43.8506 42.611C43.0834 45.2549 41.7462 47.7043 39.9304 49.7914C38.1146 51.8785 35.863 53.5541 33.3298 54.7036C30.7966 55.8531 28.0415 56.4494 25.2531 56.4516ZM24.748 36.6769L25.2569 37.2203L25.075 37.1788L25.1925 37.3598L24.3991 37.0277L0.00390625 31.6038L10.9888 27.2649L11.4227 16.1937L24.748 36.6769ZM131.806 55.719H122.867V18.7673H131.805V55.7182L131.806 55.719Z" fill="#252D44"/>
</g>
<defs>
<clipPath id="clip0_847_99">
<rect width="250" height="56.4516" fill="white"/>
</clipPath>
</defs>
</svg>
